<svg xmlns="http://www.w3.org/2000/svg" viewBox="0 0 849.13 148.51"><defs><style>.cls-1{fill:#311e84;}.cls-2{fill:none;stroke:#ff5447;stroke-miterlimit:10;stroke-width:5px;}.cls-3{fill:#ff5447;}.cls-4{fill:#c64242;}</style></defs><title>re-reduced-logo-positive</title><g id="Layer_2" data-name="Layer 2"><g id="Layer_1-2" data-name="Layer 1"><path class="cls-1" d="M205.35,60.37a55.29,55.29,0,0,0-9.66,5.47v47.81H172.51V35.25h19.32l1.61,7.57q1.77-1.12,4.42-2.57c1.77-1,3.63-1.88,5.56-2.74s3.86-1.64,5.79-2.34a38.31,38.31,0,0,1,5.31-1.52l1.94,21.89Q211.3,57.63,205.35,60.37Z"/><path class="cls-1" d="M245.14,82.58v2.26c0,4.5,1,7.54,3.06,9.09s5.74,2.34,11.11,2.34a91.44,91.44,0,0,0,12.07-.89,72,72,0,0,0,11.76-2.49l3.38,17.38a88.47,88.47,0,0,1-13.28,3.46,85.71,85.71,0,0,1-16.18,1.53A51,51,0,0,1,240.88,113,27.44,27.44,0,0,1,230,106.57a25.08,25.08,0,0,1-6.12-10.06A42.1,42.1,0,0,1,222,83.39V65a44.18,44.18,0,0,1,1.61-12A25.23,25.23,0,0,1,229.05,43a26,26,0,0,1,10.3-6.84q6.43-2.49,16.26-2.49t15.93,2.65a24.29,24.29,0,0,1,9.66,7.16A25.42,25.42,0,0,1,286,53.85a57.28,57.28,0,0,1,1.29,12.31V82.58Zm20.29-20.76A17.4,17.4,0,0,0,265,58a8.06,8.06,0,0,0-1.44-3.14,7.23,7.23,0,0,0-2.9-2.17,12.64,12.64,0,0,0-4.91-.8q-6.12,0-8.37,2.89a11.18,11.18,0,0,0-2.26,7.09V65.2h20.29Z"/><path class="cls-1" d="M299.55,78.24V58.92h41.54V78.24Z"/><path class="cls-1" d="M387.77,60.37a55.29,55.29,0,0,0-9.66,5.47v47.81H354.93V35.25h19.32l1.61,7.57q1.77-1.12,4.43-2.57t5.55-2.74q2.9-1.29,5.8-2.34A37.93,37.93,0,0,1,397,33.65l1.93,21.89Q393.72,57.63,387.77,60.37Z"/><path class="cls-1" d="M427.57,82.58v2.26c0,4.5,1,7.54,3.06,9.09s5.74,2.34,11.1,2.34a91.59,91.59,0,0,0,12.08-.89,71.85,71.85,0,0,0,11.75-2.49l3.38,17.38a88.14,88.14,0,0,1-13.28,3.46,85.63,85.63,0,0,1-16.18,1.53A51,51,0,0,1,423.3,113a27.4,27.4,0,0,1-10.86-6.44,24.86,24.86,0,0,1-6.12-10.06,41.81,41.81,0,0,1-1.93-13.12V65A43.79,43.79,0,0,1,406,53,25.21,25.21,0,0,1,411.47,43a26.1,26.1,0,0,1,10.3-6.84q6.44-2.49,16.26-2.49T454,36.3a24.29,24.29,0,0,1,9.66,7.16,25.42,25.42,0,0,1,4.83,10.39,57.93,57.93,0,0,1,1.28,12.31V82.58Zm20.28-20.76a18,18,0,0,0-.4-3.87A8.08,8.08,0,0,0,446,54.81a7.23,7.23,0,0,0-2.9-2.17,12.61,12.61,0,0,0-4.91-.8q-6.12,0-8.37,2.89a11.24,11.24,0,0,0-2.25,7.09V65.2h20.28Z"/><path class="cls-1" d="M480.56,62.62q0-14,6.28-21.49T507,33.65a90.2,90.2,0,0,1,10.39.64,81.47,81.47,0,0,1,9.58,1.61V3.22L550.11,0V113.65H531.92l-2.42-6.27q-2.09,1.29-4.91,2.73a47.13,47.13,0,0,1-6,2.58,54.27,54.27,0,0,1-6.61,1.85,31.59,31.59,0,0,1-6.6.72q-12.06,0-18.43-7.24t-6.36-21.73Zm46.37-6.92a62.22,62.22,0,0,0-7.09-1.37,56.59,56.59,0,0,0-7.72-.56q-4.68,0-6.52,2.49a10.38,10.38,0,0,0-1.85,6.36V86.29a10.22,10.22,0,0,0,1.85,6.52q1.84,2.32,6.52,2.33a19,19,0,0,0,8.13-1.93A28.66,28.66,0,0,0,526.93,89Z"/><path class="cls-1" d="M585.35,35.25V87.09q0,5.64,5.64,5.64a16.91,16.91,0,0,0,3.7-.49A44.87,44.87,0,0,0,599.11,91a47.89,47.89,0,0,0,4.59-1.86q2.25-1,4.19-2V35.25h23.18v78.4H613.85l-2.42-6a74.69,74.69,0,0,1-15.86,5.55,68.41,68.41,0,0,1-15.37,2q-10,0-14-6.84t-4-18.27V35.25Z"/><path class="cls-1" d="M665.29,83.71q0,6.12,2.82,8.94t9.9,2.81a64.27,64.27,0,0,0,8.21-.48c2.47-.32,5.09-.81,7.89-1.45L697,112.85q-6,1.29-10.38,1.85a69.2,69.2,0,0,1-8.61.56,63.34,63.34,0,0,1-16.34-1.85,27.24,27.24,0,0,1-11.19-5.71,22.45,22.45,0,0,1-6.36-9.9,45.85,45.85,0,0,1-2-14.41V65.52a45.85,45.85,0,0,1,2-14.41,22.45,22.45,0,0,1,6.36-9.9,27.24,27.24,0,0,1,11.19-5.71A62.91,62.91,0,0,1,678,33.65a67.34,67.34,0,0,1,8.61.56q4.43.57,10.38,1.85l-2.89,19.32c-2.47-.54-5.21-1-8.21-1.37a63.83,63.83,0,0,0-7.89-.56q-7.1,0-9.9,2.81t-2.82,8.94Z"/><path class="cls-1" d="M727.59,82.58v2.26c0,4.5,1,7.54,3.06,9.09s5.74,2.34,11.11,2.34a91.56,91.56,0,0,0,12.07-.89,71.63,71.63,0,0,0,11.75-2.49L769,110.27a88.14,88.14,0,0,1-13.28,3.46,85.55,85.55,0,0,1-16.18,1.53A51.07,51.07,0,0,1,723.32,113a27.47,27.47,0,0,1-10.86-6.44,25.08,25.08,0,0,1-6.12-10.06,41.81,41.81,0,0,1-1.93-13.12V65A43.79,43.79,0,0,1,706,53,25.34,25.34,0,0,1,711.49,43a26.18,26.18,0,0,1,10.3-6.84q6.45-2.49,16.26-2.49T754,36.3a24.29,24.29,0,0,1,9.66,7.16,25.42,25.42,0,0,1,4.83,10.39,57.28,57.28,0,0,1,1.29,12.31V82.58Zm20.28-20.76a17.42,17.42,0,0,0-.4-3.87A8.08,8.08,0,0,0,746,54.81a7.16,7.16,0,0,0-2.9-2.17,12.59,12.59,0,0,0-4.9-.8q-6.12,0-8.37,2.89a11.18,11.18,0,0,0-2.26,7.09V65.2h20.28Z"/><path class="cls-1" d="M779.59,62.62q0-14,6.27-21.49T806,33.65a90.16,90.16,0,0,1,10.38.64A81.11,81.11,0,0,1,826,35.9V3.22L849.13,0V113.65H830.94l-2.42-6.27q-2.09,1.29-4.91,2.73a46.53,46.53,0,0,1-6,2.58,54.63,54.63,0,0,1-6.6,1.85,31.73,31.73,0,0,1-6.6.72q-12.07,0-18.44-7.24t-6.35-21.73ZM826,55.7a62,62,0,0,0-7.08-1.37,56.73,56.73,0,0,0-7.73-.56q-4.68,0-6.52,2.49a10.38,10.38,0,0,0-1.85,6.36V86.29a10.22,10.22,0,0,0,1.85,6.52q1.85,2.32,6.52,2.33a19,19,0,0,0,8.13-1.93A28.45,28.45,0,0,0,826,89Z"/><line class="cls-2" x1="108.2" y1="34.82" x2="79.64" y2="18.33"/><line class="cls-2" x1="121.83" y1="92.24" x2="121.83" y2="56.9"/><line class="cls-2" x1="79.93" y1="131.15" x2="108.4" y2="114.72"/><line class="cls-2" x1="24.04" y1="114.77" x2="52.75" y2="131.35"/><line class="cls-2" x1="10.51" y1="56.86" x2="10.51" y2="92.24"/><line class="cls-2" x1="52.97" y1="18.18" x2="24.29" y2="34.73"/><circle class="cls-1" cx="66.38" cy="11.37" r="11"/><circle class="cls-1" cx="66.38" cy="137.51" r="11"/><circle class="cls-1" cx="11" cy="107.31" r="11"/><circle class="cls-1" cx="121.48" cy="107.31" r="11"/><circle class="cls-1" cx="11" cy="41.86" r="11"/><circle class="cls-1" cx="121.48" cy="41.86" r="11"/><polygon class="cls-3" points="66.24 50.36 45.38 62.4 45.38 86.48 66.24 98.53 87.1 86.48 87.1 62.4 66.24 50.36"/><polygon class="cls-4" points="66.24 98.53 87.1 86.48 87.1 62.4 66.24 74.4 66.24 98.53"/></g></g></svg>